<svg xmlns="http://www.w3.org/2000/svg" xmlns:xlink="http://www.w3.org/1999/xlink">
    <symbol class="bi bi-youtube" viewBox="0 0 16 16" id="youtube">
        <path
            d="M8.051 1.999h.089c.822.003 4.987.033 6.11.335a2.01 2.01 0 0 1 1.415 1.42c.101.38.172.883.22 1.402l.01.104.022.26.008.104c.065.914.073 1.77.074 1.957v.075c-.001.194-.01 1.108-.082 2.06l-.008.105-.009.104c-.05.572-.124 1.14-.235 1.558a2.01 2.01 0 0 1-1.415 1.42c-1.16.312-5.569.334-6.18.335h-.142c-.309 0-1.587-.006-2.927-.052l-.17-.006-.087-.004-.171-.007-.171-.007c-1.11-.049-2.167-.128-2.654-.26a2.01 2.01 0 0 1-1.415-1.419c-.111-.417-.185-.986-.235-1.558L.09 9.82l-.008-.104A31 31 0 0 1 0 7.68v-.123c.002-.215.01-.958.064-1.778l.007-.103.003-.052.008-.104.022-.26.01-.104c.048-.519.119-1.023.22-1.402a2.01 2.01 0 0 1 1.415-1.42c.487-.13 1.544-.21 2.654-.26l.17-.007.172-.006.086-.003.171-.007A100 100 0 0 1 7.858 2zM6.4 5.209v4.818l4.157-2.408z" />
    </symbol>
    <symbol class="bi bi-twitch" viewBox="0 0 16 16" id="twitch">
        <path
            d="M3.857 0 1 2.857v10.286h3.429V16l2.857-2.857H9.57L14.714 8V0zm9.714 7.429-2.285 2.285H9l-2 2v-2H4.429V1.143h9.142z" />
        <path d="M11.857 3.143h-1.143V6.57h1.143zm-3.143 0H7.571V6.57h1.143z" />
    </symbol>
    <symbol class="bi bi-steam" viewBox="0 0 16 16" id="steam">
        <path
            d="M.329 10.333A8.01 8.01 0 0 0 7.99 16C12.414 16 16 12.418 16 8s-3.586-8-8.009-8A8.006 8.006 0 0 0 0 7.468l.003.006 4.304 1.769A2.2 2.2 0 0 1 5.62 8.88l1.96-2.844-.001-.04a3.046 3.046 0 0 1 3.042-3.043 3.046 3.046 0 0 1 3.042 3.043 3.047 3.047 0 0 1-3.111 3.044l-2.804 2a2.223 2.223 0 0 1-3.075 2.11 2.22 2.22 0 0 1-1.312-1.568L.33 10.333Z" />
        <path
            d="M4.868 12.683a1.715 1.715 0 0 0 1.318-3.165 1.7 1.7 0 0 0-1.263-.02l1.023.424a1.261 1.261 0 1 1-.97 2.33l-.99-.41a1.7 1.7 0 0 0 .882.84Zm3.726-6.687a2.03 2.03 0 0 0 2.027 2.029 2.03 2.03 0 0 0 2.027-2.029 2.03 2.03 0 0 0-2.027-2.027 2.03 2.03 0 0 0-2.027 2.027m2.03-1.527a1.524 1.524 0 1 1-.002 3.048 1.524 1.524 0 0 1 .002-3.048" />
    </symbol>
    <symbol class="bi bi-discord" viewBox="0 0 16 16" id="discord">
        <path
            d="M13.545 2.907a13.2 13.2 0 0 0-3.257-1.011.05.05 0 0 0-.052.025c-.141.25-.297.577-.406.833a12.2 12.2 0 0 0-3.658 0 8 8 0 0 0-.412-.833.05.05 0 0 0-.052-.025c-1.125.194-2.22.534-3.257 1.011a.04.04 0 0 0-.021.018C.356 6.024-.213 9.047.066 12.032q.003.022.021.037a13.3 13.3 0 0 0 3.995 2.02.05.05 0 0 0 .056-.019q.463-.63.818-1.329a.05.05 0 0 0-.01-.059l-.018-.011a9 9 0 0 1-1.248-.595.05.05 0 0 1-.02-.066l.015-.019q.127-.095.248-.195a.05.05 0 0 1 .051-.007c2.619 1.196 5.454 1.196 8.041 0a.05.05 0 0 1 .053.007q.121.1.248.195a.05.05 0 0 1-.004.085 8 8 0 0 1-1.249.594.05.05 0 0 0-.03.03.05.05 0 0 0 .003.041c.24.465.515.909.817 1.329a.05.05 0 0 0 .056.019 13.2 13.2 0 0 0 4.001-2.02.05.05 0 0 0 .021-.037c.334-3.451-.559-6.449-2.366-9.106a.03.03 0 0 0-.02-.019m-8.198 7.307c-.789 0-1.438-.724-1.438-1.612s.637-1.613 1.438-1.613c.807 0 1.45.73 1.438 1.613 0 .888-.637 1.612-1.438 1.612m5.316 0c-.788 0-1.438-.724-1.438-1.612s.637-1.613 1.438-1.613c.807 0 1.451.73 1.438 1.613 0 .888-.631 1.612-1.438 1.612" />
    </symbol>
    <symbol class="bi bi-gog" viewBox="0 0 16 16" id="gog">
        <path
            d="M14.6,15.3H1.4c-0.8,0-1.4-0.6-1.4-1.4V2.1c0-0.8,0.6-1.4,1.4-1.4h13.2c0.8,0,1.4,0.6,1.4,1.4v11.8  C16,14.7,15.4,15.3,14.6,15.3z M1.9,12.2c0,0.4,0.3,0.7,0.7,0.7h2.6V12H3.1c-0.1,0-0.2-0.1-0.2-0.2v-1.4c0-0.1,0.1-0.2,0.2-0.2h2.1  V9.2H2.6c-0.4,0-0.7,0.3-0.7,0.7V12.2z M5.6,3.8c0-0.4-0.3-0.7-0.7-0.7H2.6c-0.4,0-0.7,0.3-0.7,0.7v2.4c0,0.4,0.3,0.7,0.7,0.7h1.6  V5.9H3.1c-0.1,0-0.2-0.1-0.2-0.2V4.2C2.8,4.1,2.9,4,3.1,4h1.4c0.1,0,0.2,0.1,0.2,0.2v2.8c0,0.1-0.1,0.2-0.2,0.2H1.9v0.9h3.1  c0.4,0,0.7-0.3,0.7-0.7l0,0V3.8z M5.6,9.9v2.4c0,0.4,0.3,0.7,0.7,0.7h2.4c0.4,0,0.7-0.3,0.7-0.7V9.9c0-0.4-0.3-0.7-0.7-0.7H6.4  C6,9.2,5.6,9.5,5.6,9.9z M9.9,3.8c0-0.4-0.3-0.7-0.7-0.7H6.8c-0.4,0-0.7,0.3-0.7,0.7v2.4c0,0.4,0.3,0.7,0.7,0.7h2.4  c0.4,0,0.7-0.3,0.7-0.7V3.8z M14.1,3.8c0-0.4-0.3-0.7-0.7-0.7h-2.4c-0.4,0-0.7,0.3-0.7,0.7v2.4c0,0.4,0.3,0.7,0.7,0.7h1.6V5.9h-1.2  c-0.1,0-0.2-0.1-0.2-0.2V4.2c0-0.1,0.1-0.2,0.2-0.2h1.4c0.1,0,0.2,0.1,0.2,0.2v2.8c0,0.1-0.1,0.2-0.2,0.2h-2.6v0.9h3.1  c0.4,0,0.7-0.3,0.7-0.7l0,0V3.8z M14.1,9.2h-3.5c-0.4,0-0.7,0.3-0.7,0.7v3.1h0.9v-2.6c0-0.1,0.1-0.2,0.2-0.2h0.5v2.8h0.9v-2.8h0.7  v2.8h0.9V9.2z M8.7,5.9H7.3c-0.1,0-0.2-0.1-0.2-0.2V4.2C7.1,4.1,7.2,4,7.3,4h1.4c0.1,0,0.2,0.1,0.2,0.2v1.4C8.9,5.8,8.8,5.9,8.7,5.9  z M6.8,10.1h1.4c0.1,0,0.2,0.1,0.2,0.2v1.4c0,0.1-0.1,0.2-0.2,0.2H6.8c-0.1,0-0.2-0.1-0.2-0.2v-1.4C6.6,10.2,6.7,10.1,6.8,10.1z" />
    </symbol>
    <symbol class="bi bi-ubisoft" viewBox="0 0 16 16" id="ubisoft">
        <path d="M15.7,8C15.5-0.2,4.7-3.2,0.5,4.4c0.2,0.2,0.5,0.4,0.6,0.5c-0.3,0.7-0.6,1.4-0.7,2C0.4,7.3,0.3,7.8,0.3,8.3  C0.3,12.6,3.7,16,8,16s7.7-3.4,7.7-7.7C15.7,8.2,15.7,8.1,15.7,8L15.7,8z M2.2,9.4c-0.1,0.8-0.1,1.1-0.1,1.2L2,10.6  C1.9,10.5,1.7,10,1.7,9.4C1.5,6.9,3.1,4.7,5.7,4.2c2.4-0.4,4.6,1.1,5.2,3.2l-0.2,0.1c-0.1-0.1-0.2-0.2-0.5-0.6  C7.3,4,2.8,5.3,2.2,9.4L2.2,9.4z M9.5,10.7c-0.4,0.6-1,0.9-1.7,0.9c-1.2,0-2.1-1-2.1-2.1c0-1.1,0.9-2,2-2.1l0,0  C8.3,7.4,9,7.8,9.3,8.4C9.6,9,9.5,9.8,9,10.3C9.2,10.5,9.4,10.6,9.5,10.7L9.5,10.7z M13.9,10.8c-1.1,2.5-3.4,3.8-5.8,3.8  C3.4,14.4,2,9,5.2,7l0.2,0.2C5.3,7.2,5.1,7.4,4.8,8C4.5,8.7,4.4,9.4,4.4,9.8c0.3,3.8,5.5,4.6,7.3,0.8C14,5.5,7.9,0.2,2.4,4.2  L2.3,4.1c1.4-2.2,4.2-3.2,6.9-2.6C13.3,2.6,15.5,6.8,13.9,10.8z" />
    </symbol>
    <symbol class="bi bi-ea" viewBox="0 0 16 16" id="ea">
        <path d="M9.9,4.2l-6.4,0l-1,1.7l6.4,0L9.9,4.2 M7.1,10.3c-0.1,0-3.8,0-4.1,0C3.2,10.1,3.9,9,3.9,8.9c0.1,0,2.5,0,2.6,0l1.1-1.7    l-6.1,0L0.5,8.9l1.4,0l-1.9,3h8.1c0.1-0.2,2.8-4.5,3-4.7c0.1,0.2,0.8,1.3,0.9,1.5c-0.2,0-0.8,0-0.8,0l-1.1,1.7c0,0,0,0,0,0    c0.2,0,2.9,0,2.9,0c0,0.1,0.9,1.4,1,1.5h2l-5-7.8C10.8,4.4,7.2,10.2,7.1,10.3" />
    </symbol>
</svg>